<svg width="300" height="300" viewBox="0 0 600 600" version="1.1" xmlns="http://www.w3.org/2000/svg" desc="Created with imagetracer.js version 1.2.6" ><path fill="#4ade80" stroke="#4ade80" stroke-width="1" opacity="1" d="M 204 264 Q 209.2 262.3 208 266 L 206 266 L 206 268 L 202 270 L 202 276 L 200 276.5 L 200 288 L 202 288 L 202 291.5 Q 205.3 290.7 204 296 L 206 296 L 206 298 L 208 298 L 210 302 Q 215.3 300.8 214.5 304 L 228 304 L 228 302 L 234 302 L 234 300 L 238 298 L 238 300 L 236 300 L 234 304 L 230 304 L 230 306 Q 224.8 304.3 226 308 L 214 308 L 214 306 L 208 306 L 208 304 L 206 304 L 206 302 L 204 302 L 204 300 L 200 298 Q 201.3 292.7 198 293.5 L 198 288 L 196 287.5 L 196 280 L 198 280 L 198 272 Q 201.7 273.2 200 268 L 204 268 L 204 264 Z " /><path fill="#4ade80" stroke="#4ade80" stroke-width="1" opacity="1" d="M 290 264 Q 295.2 262.3 294 266 L 290 268 Q 291.2 273.3 288 272.5 L 288 288 L 290 288 L 290 294 L 292 294 L 292 296 L 294 296 L 294 298 L 296 298 L 298 302 L 304 302 L 304.5 304 L 312 304 L 312 302 L 319.5 302 Q 318.7 298.8 324 300 L 324 298 L 326 298 L 326 296 L 330 294 L 330 296 L 328 296 L 328 298 L 326 298 L 326 300 L 324 300 L 322 304 Q 316.7 302.8 317.5 306 L 310 306 L 309.5 308 L 302 308 L 302 306 L 296 306 L 296 304 L 292 304 L 292 302 L 288 300 L 288 296 L 286 296 Q 287.3 290.7 284 291.5 L 284 280.5 Q 281.3 281.1 282 278 L 284 278 L 284 274 L 286 274 L 286 270 L 288 270 L 288 266 Q 291 267 290 264 Z " /><path fill="#4ade80" stroke="#4ade80" stroke-width="1" opacity="1" d="M 240 294 Q 243 293 242 296 Q 239 297 240 294 Z " /><path fill="#1a1a1a" stroke="#1a1a1a" stroke-width="1" opacity="1" d="M 218 258 Q 223.3 256.8 222.5 260 L 230 260 L 230 262 L 233.5 262 Q 232.7 265.3 238 264 L 238 266 L 240 266 L 240 268 L 244 270 Q 242.8 275.3 246 274.5 L 246 282 L 248 282.5 L 248 288 L 246 288.5 L 246 296 L 244 296 L 244 298 L 242 298 L 242 300 L 240 300 L 240 302 L 238 302 L 236 306 Q 230.7 304.8 231.5 308 L 226 308 L 225.5 310 L 212 310 L 212 308 L 206 308 L 206 306 L 204 306 L 204 304 L 200 302 L 200 298 L 198 298 Q 199.7 292.8 196 294 L 196 288 L 198 288 L 198 293.5 Q 201.3 292.7 200 298 L 202 298 L 202 300 L 204 300 L 204 302 L 206 302 L 208 306 L 214 306 L 214.5 308 L 226 308 L 226 306 L 230 306 L 230 304 Q 235.2 305.7 234 302 L 228 302 L 227.5 304 L 214 304 L 214 302 L 210 302 L 210 300 L 208 300 L 208 298 L 204 296 L 204 292 L 202 292 Q 203.7 286.8 200 288 L 200 276 L 202 276 L 202 270.5 Q 204.8 271.1 204 268 Q 201 269 202 266 L 206 268 L 208 264 Q 205 265 206 262 Q 211.3 263.3 210.5 260 L 218 260 L 218 258 Z M 240 294 Q 239 297 242 296 Q 243 293 240 294 Z M 236 298 Q 235 301 238 300 Q 239 297 236 298 Z M 234 300 Q 233 303 236 302 Q 237 299 234 300 Z " /><path fill="#1a1a1a" stroke="#1a1a1a" stroke-width="1" opacity="1" d="M 298 258 L 316 258 L 316 260 L 319.5 260 Q 318.7 263.3 324 262 L 324 264 L 326 264 L 326 266 L 328 266 L 328 268 L 332 270 Q 330.8 275.3 334 274.5 L 334 294 Q 330.3 292.8 332 298 L 330 298 L 330 300 L 328 300 L 328 302 L 326 302 L 324 306 L 320 306 L 320 308 L 314 308 L 313.5 310 L 300 310 L 300 308 L 294 308 L 294 306 L 292 306 L 292 304 L 290 304 L 290 302 L 286 300 L 286 296 L 284 296 Q 285.3 290.7 282 291.5 L 282 280 L 284 280 L 284 291.5 Q 287.3 290.7 286 296 L 288 296 L 288 300 L 290 300 L 292 304 L 296 304 L 296 306 L 302 306 L 302.5 308 L 310 308 L 310 306 L 317.5 306 Q 316.7 302.8 322 304 L 324 300 Q 318.7 298.8 319.5 302 L 312 302 L 311.5 304 L 304 304 L 304 302 L 298 302 L 298 300 L 296 300 L 296 298 L 294 298 L 294 296 L 290 294 L 290 288 L 288 287.5 L 288 272 L 290 272 L 290 268 L 292 268 L 294 264 Q 291 265 292 262 Q 295 263 294 260 L 298 260 L 298 258 Z M 328 294 Q 327 297 330 296 Q 331 293 328 294 Z M 326 296 Q 325 299 328 298 Q 329 295 326 296 Z M 324 298 Q 323 301 326 300 Q 327 297 324 298 Z " /><path fill="#1a1a1a" stroke="#1a1a1a" stroke-width="1" opacity="1" d="M 288 264 Q 291 263 290 266 Q 287 267 288 264 Z " /><path fill="#1a1a1a" stroke="#1a1a1a" stroke-width="1" opacity="1" d="M 286 268 Q 289 267 288 270 L 286 270 Q 287.7 275.2 284 274 L 284 270 Q 287 271 286 268 Z " /><path fill="#1a1a1a" stroke="#1a1a1a" stroke-width="1" opacity="1" d="M 198 270 Q 201 269 200 272 Q 197 273 198 270 Z " /><path fill="#1a1a1a" stroke="#1a1a1a" stroke-width="1" opacity="1" d="M 196 274 L 198 274 L 198 280 L 196 280 L 196 274 Z " /><path fill="#1a1a1a" stroke="#1a1a1a" stroke-width="1" opacity="1" d="M 282 276 Q 285 275 284 278 Q 281 279 282 276 Z " /></svg>