<svg width="300" height="300" viewBox="0 0 1200 1200" version="1.1" xmlns="http://www.w3.org/2000/svg" desc="Created with imagetracer.js version 1.2.6" ><path fill="#3b82f6" stroke="#3b82f6" stroke-width="1" opacity="1" d="M 680 672 L 684 672 Q 682 678 688 676 L 688 684 L 692 684.5 L 692 696 L 696 696.5 L 696 711.5 L 700 712.5 L 700 731.5 L 704 732.5 L 704 747.5 L 708 748.5 L 708 764 L 704 764 L 704 768 L 700 768 L 700 772 L 696 772 L 696 776 Q 690 774 692 780 L 684 780 L 684 784 Q 678 782 680 788 L 672 788 L 672 792 L 664 792 L 664 796 L 656 796 L 656 800 L 644 800 L 644 804 L 636 804 L 636 808 L 624 808 L 623.5 812 L 608.5 812 L 608 816 L 592.5 816 L 591.5 820 L 568.5 820 L 567.5 824 L 500 824 L 499.5 820 L 480.5 820 L 479.5 816 L 464.5 816 L 463.5 812 L 452.5 812 L 452 808 L 444 808 L 444 804 L 436 804 Q 438 798 432 800 L 432 784.5 L 428 783.5 L 428 768.5 L 424 767.5 L 424 752.5 L 420 752 L 420 740.5 L 416 740 L 416 728.5 L 412 728 L 412 720 L 531.5 720 L 532.5 716 L 555.5 716 L 556.5 712 L 571.5 712 L 572.5 708 L 587.5 708 L 588.5 704 L 603.5 704 L 604.5 700 L 616 700 L 616 696 L 628 696 L 628 692 L 636 692 L 636 688 L 647.5 688 L 648.5 684 L 660 684 L 660 680 L 668 680 L 668.5 676 L 680 676 L 680 672 Z " /></svg>