<svg width="300" height="300" viewBox="0 0 600 600" version="1.1" xmlns="http://www.w3.org/2000/svg" desc="Created with imagetracer.js version 1.2.6" ><path fill="#4ade80" stroke="#4ade80" stroke-width="1" opacity="1" d="M 302 384 L 319.5 384 Q 318.9 386.8 322 386 Q 321 383 324 384 Q 323 387 326 386 Q 325 383 328 384 Q 327.3 387.1 330 386.5 L 330 404 Q 326.9 403.3 327.5 406 L 322 406 L 321.5 408 L 314.5 408 Q 315.3 411.3 310 410 L 310 408 L 302.5 408 L 302 407.5 L 302 384 Z " /><path fill="#4ade80" stroke="#4ade80" stroke-width="1" opacity="1" d="M 328 408 L 330 408.5 L 330 426 Q 326.9 425.3 327.5 428 L 322 428 L 321.5 430 L 314.5 430 Q 315.3 433.2 310 432 L 309.5 430 L 302 430 L 302 410 L 308 410 L 308.5 412 L 320 412 L 320 410 L 327.5 410 L 328 408 Z " /><path fill="#4ade80" stroke="#4ade80" stroke-width="1" opacity="1" d="M 328 430 L 330 430.5 L 330 448 Q 327 447 328 450 L 324 450 L 323.5 452 L 314.5 452 Q 315.3 455.3 310 454 L 309.5 452 L 302 452 L 302 432 L 308 432 L 308.5 434 L 320 434 L 320 432 L 327.5 432 L 328 430 Z " /><path fill="#4ade80" stroke="#4ade80" stroke-width="1" opacity="1" d="M 328 452 L 330 452.5 L 330 468 Q 327 467 328 470 L 324 470 L 323.5 472 L 306.5 472 L 306 474 L 327.5 474 Q 326.9 471.3 330 472 L 330 485.5 Q 333.3 484.7 332 490 L 328 490 L 326 494 Q 320.8 492.3 322 496 L 329.5 496 Q 328.9 493.2 332 494 L 332 499.5 L 334 500 L 334 506 L 332 506 L 332 510 L 330 510 L 328 514 L 322.5 514 L 322 516 L 316 516 L 316 514 L 310.5 514 Q 311.3 510.7 306 512 L 306 506 L 304 505.5 L 304 496 Q 309.3 494.7 308.5 498 L 322 498 L 321.5 496 L 310.5 496 L 310 494 L 304 494 L 304 472 Q 307 473 306 470 L 304 470 Q 305.3 464.7 302 465.5 L 302 454 L 308 454 L 308.5 456 L 320 456 L 320 454 L 327.5 454 L 328 452 Z " /><path fill="#4ade80" stroke="#4ade80" stroke-width="1" opacity="1" d="M 276 506 Q 279 505 278 508 L 276 508 L 276 512 Q 273 511 274 514 L 270 514 L 270 516 L 268 516 L 268 518 L 264 520 Q 265.3 525.3 262 524.5 L 262 533.5 L 260 534.5 L 260 542 Q 256.3 540.8 258 546 L 254 546 Q 255.3 540.7 252 541.5 L 252 526 L 254 526 L 254 522.5 Q 257.2 523.3 256 518 L 258 518 L 258 516 L 260 516 L 260 514 L 264 512 L 264 510 Q 269.3 511.3 268.5 508 L 276 508 L 276 506 Z " /><path fill="#4ade80" stroke="#4ade80" stroke-width="1" opacity="1" d="M 338 506 L 344 506 L 344 508 Q 349.2 506.3 348 510 L 346 510 L 346 512 L 342 514 L 342 518 L 338 520 Q 339.2 525.3 336 524.5 L 336 530 L 334 530.5 L 334 536 L 332 536.5 L 332 549.5 L 330 550.5 L 330 576 L 332 576.5 L 332 591.5 L 334 592.5 L 334 600 L 272.5 600 L 272 599.5 L 272 586.5 L 270 586 Q 271 589 268 588 L 268 592 L 270 592.5 L 270 600 L 262.5 600 Q 263.1 597.3 260 598 L 260 596 L 252 596 L 252 592 L 254 592 L 254 586.5 L 256 586 L 256 580 L 258 580 Q 256.3 574.8 260 576 L 260 578 L 263.5 578 Q 262.7 581.3 268 580 L 268 586 L 270 586 L 270 544.5 L 272 544 L 272 538 L 274 538 L 274 532 L 276 532 L 276 528 L 280 526 L 280 522 L 282 522 L 284 518 L 288 518 L 288 516 L 292 516 L 292 514 Q 297.2 515.7 296 512 L 302 512 L 302 516 L 306 516 L 308 520 L 315.5 520 L 316.5 522 L 326 522 L 326 520 L 330 520 L 330 518 L 332 518 L 332 516 L 334 516 L 334 514 L 338 512 L 338 506 Z " /><path fill="#4ade80" stroke="#4ade80" stroke-width="1" opacity="1" d="M 262 558 Q 265 557 264 560 L 268 560.5 L 268 578 Q 265 579 266 576 L 262 576 Q 263 573 260 574 L 260 564 L 262 564 L 262 558 Z " /><path fill="#4ade80" stroke="#4ade80" stroke-width="1" opacity="1" d="M 392 558 L 396 558 L 396 564 L 392 564 Q 393 567 390 566 Q 391 563 388 564 L 388 560 Q 393.2 561.7 392 558 Z " /><path fill="#4ade80" stroke="#4ade80" stroke-width="1" opacity="1" d="M 392 568 L 400 568 L 400 572 L 402 572 Q 400.3 577.2 404 576 L 404 582 L 406 582 L 406 588 Q 409 587 408 590 L 404.5 590 Q 405.3 593.3 400 592 Q 401.3 586.7 398 587.5 L 398 580 L 396 579.5 L 396 574 L 394 574 L 394 570 Q 391 571 392 568 Z " /><path fill="#4ade80" stroke="#4ade80" stroke-width="1" opacity="1" d="M 404 594 L 408 594 L 408 598 Q 411 597 410 600 L 400 600 L 400 596 Q 405.2 597.7 404 594 Z " /><path fill="#4ade80" stroke="#4ade80" stroke-width="1" opacity="1" d="M 250 598 Q 253 597 252 600 Q 249 601 250 598 Z " /><path fill="#1a1a1a" stroke="#1a1a1a" stroke-width="1" opacity="1" d="M 304 382 L 332 382 L 332 415.5 L 334 416.5 L 334 477.5 L 336 478.5 L 336 495.5 L 338 496 L 338.5 500 L 364 500 L 364 498 L 367.5 498 Q 366.7 494.7 372 496 L 374 492 L 380 492 L 380.5 490 L 392 490 L 392 492 L 398 492 L 400 496 L 404 496 L 404 498 L 408 500 L 408 504 L 410 504 Q 408.8 509.3 412 508.5 L 412 516 L 414 516.5 L 414 526 L 412 526.5 L 412 535.5 L 410 536 L 410 542 L 408 542.5 L 408 550 Q 411.7 548.8 410 554 L 414 556 Q 412.8 561.3 416 560.5 L 416 566 L 418 566 Q 416.3 571.2 420 570 L 420 576 L 422 576 L 422 582 L 424 582.5 L 424 593.5 L 426 594 L 426 600 L 420 600 L 420 594.5 L 419.5 594 L 402 594 Q 403 597 400 596 L 400 600 L 396 600 L 396 592.5 L 394 591.5 L 394 582 L 392 582 L 392 578 L 390 578 L 390 574 L 388 574 L 388 570 L 386 570 L 386 566.5 Q 382.8 567.3 384 562 Q 380.9 562.8 381.5 560 L 372 560 L 372 562 L 370 562 L 370 564 L 366 566 Q 367.3 571.3 364 570.5 L 364 576 L 366 576.5 L 366 585.5 L 368 586 L 368 592 L 370 592.5 L 370 600 L 366 600 Q 367 597 364 598 L 364 590.5 L 362 589.5 L 362 582.5 L 360 581.5 L 360 568 L 362 568 L 362 564.5 Q 365.3 565.3 364 560 L 366 560 L 368 556 L 366 556 L 366 554 L 364 554 L 364 552 L 362 552 L 362 550 L 358 548 L 358 544 L 356 544 Q 357.3 538.7 354 539.5 L 354 532 Q 351 533 352 530 Q 355.7 531.2 354 526 Q 351 527 352 524 L 354 523.5 L 354 514 L 350 514 L 350 516 L 348 516 L 348 518 L 344 520 L 344 524 L 342 524 L 342 528 L 340 528 Q 341.7 533.2 338 532 L 338 538 L 336 538.5 L 336 547.5 Q 333.3 546.9 334 550 Q 337 549 336 552 L 334 552.5 L 334 584 L 336 584.5 L 336 598 L 334 597.5 L 334 584.5 L 332 583.5 L 332 542 L 334 542 L 334 534 L 336 534 L 336 528 L 338 528 L 338 524 L 340 524 L 340 520.5 Q 343.3 521.3 342 516 L 344 516 L 344 514 L 346 514 L 346 512 L 348 512 L 348 510 L 350 510 L 352 506 L 338 506 Q 339 509 336 508 L 336 512 L 334 512 L 334 516 Q 331 515 332 518 L 328 518 L 328 520 L 312 520 L 312 518 L 308 518 L 308 516 L 304 516 Q 305 513 302 514 L 302 510 L 298 510 L 298 512 L 294 512 L 294 514 L 290.5 514 Q 291.3 517.3 286 516 L 286 518 L 284 518 L 284 520 L 282 520 L 282 522 L 278 524 L 278 528 L 276 528 L 276 532 L 274 532 Q 275.7 537.2 272 536 L 272 544 L 270 544 L 270 534.5 L 272 534 L 272 528.5 Q 275.3 529.3 274 524 L 278 522 L 278 518 Q 281 519 280 516 L 284 516 L 286 512 L 290 512 L 292 508 Q 288.9 508.8 289.5 506 L 272 506 L 272 508 L 268.5 508 Q 269.3 511.3 264 510 L 264 512 L 262 512 L 262 514 L 260 514 L 260 516 L 256 518 L 256 522 L 252 524 L 252 544 L 254 544 L 254 546 L 256 546 L 258 550 L 262 550 L 262 552 L 266 552 Q 265 555 268 554 L 268 546.5 L 270 546 L 270 585.5 L 268 586 L 268 580 L 264 580 L 264 578 L 260 578 Q 261 575 258 576 Q 259.3 581.3 256 580.5 L 256 586 L 254 586 Q 255.7 591.2 252 590 L 252 596 L 260 596 L 262 600 L 252.5 600 Q 253.1 597.3 250 598 L 250 600 L 244 600 L 244 596 L 246 596 L 246 592 L 248 592 L 248 588 L 250 588 L 250 584 L 252 584 Q 250.3 578.8 254 580 L 254 574.5 L 256 574 L 256 568 L 258 568 L 258 560.5 Q 261.3 561.3 260 556 L 256 556 L 256 554 L 252 552 L 252 548.5 Q 248.7 549.3 250 544 L 248 544 L 248 526 L 250 526 L 250 520 L 254 518 L 254 514 L 256 514 L 256 512 L 260 510 L 260 508 L 264 508 L 264 506 L 268 506 L 268 504 Q 273.3 505.3 272.5 502 L 292 502 L 292 504 L 297.5 504 Q 296.7 507.3 302 506 Q 302.8 502.9 300 503.5 L 300 390 L 302 390.5 L 302 407.5 L 306 408 L 306 410 L 302 410.5 L 302 430 Q 307.2 428.3 306 432 L 302 432.5 L 302 452 Q 307.2 450.3 306 454 L 302 454.5 L 302 470 Q 305 469 304 472 L 302 472.5 L 302 480 L 304 480.5 L 304 494 Q 309.2 492.3 308 496 L 304 496 L 304 508 L 306 508 L 306 512 Q 311.2 510.3 310 514 L 315.5 514 L 316 516 L 322 516 L 322 514 L 328 514 L 328 512 L 330 512 L 330 510 L 334 508 L 334 498 Q 330.3 499.2 332 494 L 328 494 L 328 496 L 322 496 L 322 494 L 326 494 L 326 492 L 330 492 Q 329 489 332 490 L 332 484 L 330 484 L 330 472.5 L 328 472 L 327.5 474 L 308 474 L 308.5 472 L 323.5 472 L 324 470 L 328 470 Q 327 467 330 468 L 330 452 Q 326.9 451.3 327.5 454 L 318 454 L 318 452 L 324 452 L 324 450 L 328 450 Q 327 447 330 448 L 330 430 Q 326.9 429.3 327.5 432 L 318 432 L 318 430 L 324 430 L 324 428 L 328 428 Q 327 425 330 426 L 330 408 Q 326.9 407.3 327.5 410 L 318 410 L 318 408 L 324 408 L 324 406 L 328 406 Q 327 403 330 404 L 330 384 L 304.5 384 L 304 382 Z M 372 498 L 372 500 L 368 500 Q 369 503 366 502 L 366 506 L 362 506 L 362 510 L 360 510 Q 361 515 358 515 L 358 522 L 356 522 L 356 534 Q 359 533 358 538 L 360 538 L 360 542 L 362 542 L 362 546 L 366 548 L 366 550 Q 371 549 371 552 L 374 552 L 374 554 L 390 554 Q 389 551 394 552 L 396 548 L 400 548 L 400 544 L 404 542 Q 403 537 406 538 L 406 534 L 408 534 L 408 525 L 410 524 L 410 518 L 408 518 L 408 510 L 406 510 L 406 506 L 402 504 L 402 502 L 400 502 L 400 500 Q 395 501 396 498 L 372 498 Z M 354 512 Q 353 515 356 514 Q 357 511 354 512 Z M 404 550 L 402 554 L 400 554 L 400 556 Q 395 555 396 558 L 390 558 Q 391 561 388 560 L 388 564 Q 391 563 390 566 Q 395 567 395 564 L 398 564 L 398 562 L 402 562 L 402 560 L 408 560 L 408 554 Q 404 555 406 550 L 404 550 Z M 262 558 Q 264 563 260 562 L 260 574 Q 263 573 262 576 L 266 576 Q 265 579 268 578 L 268 561 L 264 560 Q 265 557 262 558 Z M 406 564 L 406 566 L 397 566 Q 397 569 392 568 Q 391 573 394 573 L 394 576 L 396 576 L 396 582 L 398 583 L 398 590 Q 401 589 400 592 L 404 592 L 404 590 Q 409 591 409 588 L 418 588 L 418 581 L 416 580 L 416 572 Q 412 573 414 568 L 412 568 L 412 564 L 406 564 Z " /><path fill="#1a1a1a" stroke="#1a1a1a" stroke-width="1" opacity="1" d="M 300 384 Q 303 383 302 386 Q 299 387 300 384 Z " /><path fill="#1a1a1a" stroke="#1a1a1a" stroke-width="1" opacity="1" d="M 314 410 Q 317 409 316 412 Q 313 413 314 410 Z " /><path fill="#1a1a1a" stroke="#1a1a1a" stroke-width="1" opacity="1" d="M 314 432 Q 317 431 316 434 Q 313 435 314 432 Z " /><path fill="#1a1a1a" stroke="#1a1a1a" stroke-width="1" opacity="1" d="M 314 454 Q 317 453 316 456 Q 313 457 314 454 Z " /><path fill="#1a1a1a" stroke="#1a1a1a" stroke-width="1" opacity="1" d="M 310 496 L 319.5 496 L 320 498 L 310.5 498 L 310 496 Z " /><path fill="#1a1a1a" stroke="#1a1a1a" stroke-width="1" opacity="1" d="M 270 594 L 272 594 L 272 600 L 270 600 L 270 594 Z " /><path fill="#3b82f6" stroke="#3b82f6" stroke-width="1" opacity="1" d="M 320 384 Q 323 383 322 386 Q 319 387 320 384 Z " /><path fill="#3b82f6" stroke="#3b82f6" stroke-width="1" opacity="1" d="M 324 384 Q 327 383 326 386 Q 323 387 324 384 Z " /><path fill="#3b82f6" stroke="#3b82f6" stroke-width="1" opacity="1" d="M 328 384 Q 331 383 330 386 Q 327 387 328 384 Z " /><path fill="#3b82f6" stroke="#3b82f6" stroke-width="1" opacity="1" d="M 300 386 Q 303.7 384.8 302 390 Q 298.3 391.2 300 386 Z " /><path fill="#3b82f6" stroke="#3b82f6" stroke-width="1" opacity="1" d="M 322 406 Q 325 405 324 408 Q 321 409 322 406 Z " /><path fill="#3b82f6" stroke="#3b82f6" stroke-width="1" opacity="1" d="M 306 408 L 309.5 408 Q 308.7 411.3 314 410 Q 312.8 406.3 318 408 L 320 412 L 316 412 Q 317 409 314 410 L 314 412 L 308 412 L 306 408 Z " /><path fill="#3b82f6" stroke="#3b82f6" stroke-width="1" opacity="1" d="M 322 428 Q 325 427 324 430 Q 321 431 322 428 Z " /><path fill="#3b82f6" stroke="#3b82f6" stroke-width="1" opacity="1" d="M 306 430 L 309.5 430 Q 308.7 433.2 314 432 Q 312.8 428.3 318 430 L 320 434 L 316 434 Q 317 431 314 432 L 314 434 L 308 434 L 306 430 Z " /><path fill="#3b82f6" stroke="#3b82f6" stroke-width="1" opacity="1" d="M 306 452 L 309.5 452 Q 308.7 455.3 314 454 Q 312.8 450.3 318 452 L 320 456 L 316 456 Q 317 453 314 454 L 314 456 L 308 456 L 306 452 Z " /><path fill="#3b82f6" stroke="#3b82f6" stroke-width="1" opacity="1" d="M 302 466 L 304 466 L 304 470 L 306 470 L 308 474 L 304 472 L 304 479.5 L 302 480 L 302 472.5 Q 304.8 473.1 304 470 Q 300.3 471.2 302 466 Z " /><path fill="#3b82f6" stroke="#3b82f6" stroke-width="1" opacity="1" d="M 330 484 Q 333 483 332 486 Q 329 487 330 484 Z " /><path fill="#3b82f6" stroke="#3b82f6" stroke-width="1" opacity="1" d="M 328 490 Q 331 489 330 492 Q 327 493 328 490 Z " /><path fill="#3b82f6" stroke="#3b82f6" stroke-width="1" opacity="1" d="M 308 494 Q 311.7 492.8 310 498 Q 306.3 499.2 308 494 Z " /><path fill="#3b82f6" stroke="#3b82f6" stroke-width="1" opacity="1" d="M 328 494 Q 331 493 330 496 Q 327 497 328 494 Z " /><path fill="#3b82f6" stroke="#3b82f6" stroke-width="1" opacity="1" d="M 320 496 Q 323 495 322 498 Q 319 499 320 496 Z " /><path fill="#3b82f6" stroke="#3b82f6" stroke-width="1" opacity="1" d="M 332 498 Q 335 497 334 500 Q 331 501 332 498 Z " /><path fill="#3b82f6" stroke="#3b82f6" stroke-width="1" opacity="1" d="M 372 498 L 395.5 498 Q 394.7 501.2 400 500 L 400 502 L 402 502 L 402 504 L 406 506 L 406 510 L 408 510 L 408 517.5 L 410 518 L 410 524 L 408 524.5 L 408 534 L 406 534 L 406 537.5 Q 402.7 536.7 404 542 L 400 544 L 400 548 L 396 548 L 394 552 Q 388.7 550.8 389.5 554 L 374 554 L 374 552 L 370.5 552 Q 371.3 548.8 366 550 L 366 548 L 362 546 L 362 542 L 360 542 L 360 538 L 358 538 Q 359.3 532.7 356 533.5 L 356 522 L 358 522 L 358 514.5 Q 361.2 515.3 360 510 L 362 510 L 362 506 L 366 506 L 366 502 Q 369 503 368 500 L 372 500 L 372 498 Z " /><path fill="#3b82f6" stroke="#3b82f6" stroke-width="1" opacity="1" d="M 272 506 L 276 506 Q 275 509 278 508 L 278.5 506 L 290 506 L 292 510 Q 289 509 290 512 L 286 512 L 284 516 L 280 516 Q 281 519 278 518 L 278 522 L 274 524 Q 275.3 529.3 272 528.5 L 272 534 L 270 534.5 L 270 545.5 Q 266.6 544.7 268 553.5 L 266 554 L 266 552 L 262.5 552 Q 263.3 548.8 258 550 L 256 546 L 258 546 Q 256.3 540.8 260 542 L 260 534.5 L 262 533.5 L 262 524.5 Q 265.3 525.3 264 520 L 266 520 L 266 518 L 268 518 L 270 514 L 274 514 Q 273 511 276 512 L 276 508 Q 270.8 509.7 272 506 Z " /><path fill="#3b82f6" stroke="#3b82f6" stroke-width="1" opacity="1" d="M 304 506 Q 307 505 306 508 Q 303 509 304 506 Z " /><path fill="#3b82f6" stroke="#3b82f6" stroke-width="1" opacity="1" d="M 332 506 Q 335 505 334 508 Q 331 509 332 506 Z " /><path fill="#3b82f6" stroke="#3b82f6" stroke-width="1" opacity="1" d="M 344 506 L 351.5 506 L 352 508 L 350 508 L 350 510 L 348 510 L 348 512 L 346 512 L 344 516 L 342 516 L 342 514 L 344 514 L 344 512 L 348 510 L 348 508 Q 342.8 509.7 344 506 Z " /><path fill="#3b82f6" stroke="#3b82f6" stroke-width="1" opacity="1" d="M 336 508 Q 339.7 506.8 338 512 L 334 514 Q 333 511 336 512 L 336 508 Z " /><path fill="#3b82f6" stroke="#3b82f6" stroke-width="1" opacity="1" d="M 298 510 Q 303.2 508.3 302 512 Q 296.8 513.7 298 510 Z " /><path fill="#3b82f6" stroke="#3b82f6" stroke-width="1" opacity="1" d="M 294 512 Q 297 511 296 514 Q 293 515 294 512 Z " /><path fill="#3b82f6" stroke="#3b82f6" stroke-width="1" opacity="1" d="M 354 512 Q 357 511 356 514 L 354 514 L 354 523.5 Q 351.3 522.9 352 526 Q 355.7 524.8 354 530 Q 351 529 352 532 L 354 532 L 354 539.5 Q 357.3 538.7 356 544 L 358 544 L 358 548 L 360 548 L 360 550 L 362 550 L 362 552 L 364 552 L 364 554 L 366 554 L 368 558 L 364 560 L 364 564 L 362 564 Q 363.7 569.2 360 568 L 360 582 L 362 582 L 362 589.5 L 364 590 L 364 597.5 Q 366.8 596.9 366 600 L 334.5 600 L 334 598 L 336 597.5 L 336 584 L 334 584 L 334 591.5 L 332 592 L 332 584.5 L 334 583.5 L 334 552.5 Q 336.8 553.1 336 550 Q 333 551 334 548 L 336 547.5 L 336 538.5 L 338 538 L 338 532 L 340 532 L 340 528 L 342 528 L 342 524.5 Q 345.3 525.3 344 520 L 346 520 L 346 518 L 348 518 L 350 514 L 354 514 L 354 512 Z " /><path fill="#3b82f6" stroke="#3b82f6" stroke-width="1" opacity="1" d="M 290 514 Q 293 513 292 516 Q 289 517 290 514 Z " /><path fill="#3b82f6" stroke="#3b82f6" stroke-width="1" opacity="1" d="M 302 514 Q 305 513 304 516 Q 301 517 302 514 Z " /><path fill="#3b82f6" stroke="#3b82f6" stroke-width="1" opacity="1" d="M 286 516 Q 289 515 288 518 Q 285 519 286 516 Z " /><path fill="#3b82f6" stroke="#3b82f6" stroke-width="1" opacity="1" d="M 306 516 Q 309 515 308 518 L 312 518 L 312 520 L 308 520 L 306 516 Z " /><path fill="#3b82f6" stroke="#3b82f6" stroke-width="1" opacity="1" d="M 328 518 Q 331 517 330 520 Q 327 521 328 518 Z " /><path fill="#3b82f6" stroke="#3b82f6" stroke-width="1" opacity="1" d="M 340 518 Q 343 517 342 520 L 340 520 L 340 524 L 338 524 Q 339.7 529.2 336 528 L 336 524 L 338 524 L 338 520 Q 341 521 340 518 Z " /><path fill="#3b82f6" stroke="#3b82f6" stroke-width="1" opacity="1" d="M 316 520 L 325.5 520 L 326 522 L 316.5 522 L 316 520 Z " /><path fill="#3b82f6" stroke="#3b82f6" stroke-width="1" opacity="1" d="M 252 524 Q 255 523 254 526 Q 251 527 252 524 Z " /><path fill="#3b82f6" stroke="#3b82f6" stroke-width="1" opacity="1" d="M 278 524 Q 281 523 280 526 Q 277 527 278 524 Z " /><path fill="#3b82f6" stroke="#3b82f6" stroke-width="1" opacity="1" d="M 334 530 Q 337.7 528.8 336 534 Q 332.3 535.2 334 530 Z " /><path fill="#3b82f6" stroke="#3b82f6" stroke-width="1" opacity="1" d="M 272 536 Q 275 535 274 538 Q 271 539 272 536 Z " /><path fill="#3b82f6" stroke="#3b82f6" stroke-width="1" opacity="1" d="M 332 536 L 334 536 L 334 542 L 332 542 L 332 536 Z " /><path fill="#3b82f6" stroke="#3b82f6" stroke-width="1" opacity="1" d="M 252 542 Q 255 541 254 544 Q 251 545 252 542 Z " /><path fill="#3b82f6" stroke="#3b82f6" stroke-width="1" opacity="1" d="M 330 550 L 332 550.5 L 332 576 L 330 575.5 L 330 550 Z " /><path fill="#3b82f6" stroke="#3b82f6" stroke-width="1" opacity="1" d="M 404 550 L 406 550 Q 404.3 555.2 408 554 L 408 560 L 402 560 L 402 562 L 398 562 Q 399 565 396 564 L 396 556 L 400 556 L 400 554 L 402 554 L 404 550 Z " /><path fill="#3b82f6" stroke="#3b82f6" stroke-width="1" opacity="1" d="M 390 558 Q 393 557 392 560 Q 389 561 390 558 Z " /><path fill="#3b82f6" stroke="#3b82f6" stroke-width="1" opacity="1" d="M 260 562 Q 263 561 262 564 Q 259 565 260 562 Z " /><path fill="#3b82f6" stroke="#3b82f6" stroke-width="1" opacity="1" d="M 392 564 Q 395 563 394 566 Q 391 567 392 564 Z " /><path fill="#3b82f6" stroke="#3b82f6" stroke-width="1" opacity="1" d="M 406 564 L 412 564 L 412 568 L 414 568 Q 412.3 573.2 416 572 L 416 579.5 L 418 580.5 L 418 588 L 406 588 L 406 582.5 L 404 582 L 404 576 L 402 576 L 402 572.5 Q 398.8 573.3 400 568 Q 394.8 569.7 396 566 L 405.5 566 L 406 564 Z " /><path fill="#3b82f6" stroke="#3b82f6" stroke-width="1" opacity="1" d="M 392 570 Q 395 569 394 572 Q 391 573 392 570 Z " /><path fill="#3b82f6" stroke="#3b82f6" stroke-width="1" opacity="1" d="M 394 574 Q 397 573 396 576 Q 393 577 394 574 Z " /><path fill="#3b82f6" stroke="#3b82f6" stroke-width="1" opacity="1" d="M 396 580 Q 399 579 398 582 Q 395 583 396 580 Z " /><path fill="#3b82f6" stroke="#3b82f6" stroke-width="1" opacity="1" d="M 270 586 L 272 586.5 L 272 594 L 268 592 L 268 588 Q 271 589 270 586 Z " /><path fill="#3b82f6" stroke="#3b82f6" stroke-width="1" opacity="1" d="M 398 588 Q 401 587 400 590 Q 397 591 398 588 Z " /><path fill="#3b82f6" stroke="#3b82f6" stroke-width="1" opacity="1" d="M 252 590 Q 255 589 254 592 Q 251 593 252 590 Z " /><path fill="#3b82f6" stroke="#3b82f6" stroke-width="1" opacity="1" d="M 402 594 Q 405 593 404 596 Q 401 597 402 594 Z " /><path fill="#3b82f6" stroke="#3b82f6" stroke-width="1" opacity="1" d="M 408 594 L 420 594 L 420 600 L 410 600 Q 411 597 408 598 L 408 594 Z " /></svg>